<?xml version="1.0" encoding="utf-8"?>
<!-- Generator: Adobe Illustrator 23.0.1, SVG Export Plug-In . SVG Version: 6.00 Build 0)  -->
<svg version="1.1" id="Layer_1" xmlns="http://www.w3.org/2000/svg" xmlns:xlink="http://www.w3.org/1999/xlink" x="0px" y="0px"
	 viewBox="0 0 512 512" style="enable-background:new 0 0 512 512;" xml:space="preserve">
<style type="text/css">
	.st0{fill:url(#SVGID_1_);}
	.st1{fill:url(#SVGID_2_);}
	.st2{fill:url(#SVGID_3_);}
	.st3{fill:url(#SVGID_4_);}
	.st4{fill:url(#SVGID_5_);}
	.st5{fill:url(#SVGID_6_);}
	.st6{fill:#3E5959;}
	.st7{fill:url(#SVGID_7_);}
</style>
<g>
	<radialGradient id="SVGID_1_" cx="256" cy="256" r="255.7257" gradientUnits="userSpaceOnUse">
		<stop  offset="0" style="stop-color:#1B1464"/>
		<stop  offset="0.1681" style="stop-color:#19125B"/>
		<stop  offset="0.4389" style="stop-color:#120E44"/>
		<stop  offset="0.7766" style="stop-color:#08061D"/>
		<stop  offset="1" style="stop-color:#000000"/>
	</radialGradient>
	<path class="st0" d="M0,398.7C0,303.3,0,208,0,112.6c0.8-5.1,1.2-10.3,2.3-15.4c7.3-33.9,25.5-60.4,54.8-78.9
		C73.9,7.7,92.2,1.7,112,0.6c57.2,0,114.5,0,171.7,0c38.7,0,77.4,0,116.1,0c2.3-0.1,4.5,0.3,6.8,0.6c32.7,4.4,59.3,19.6,79.7,45.4
		c16.3,20.5,25.3,44.1,25.4,70.3c0.4,91.9,0.2,183.8,0.2,275.8c0,6.5-0.6,12.9-1.8,19.3c-5.3,29.1-19.3,53.2-42.1,72.1
		c-21.5,17.8-46.4,27-74.3,27.5c-0.8,0-1.6,0-2.4,0c-89.9,0-179.8,0-269.8,0c-0.9,0-1.8,0-2.7,0.1c-19.7,0-38.3-4.9-55.5-14.4
		C31,479,10.8,451.9,2.6,415.8C1.3,410.2,1.1,404.4,0,398.7z"/>
</g>
<g>
	<g>
		<g>
			<g>
				
					<linearGradient id="SVGID_2_" gradientUnits="userSpaceOnUse" x1="-59.4416" y1="1221.6047" x2="10.3478" y2="1053.7333" gradientTransform="matrix(1.0039 0 0 -1.0039 257.7 1341.7844)">
					<stop  offset="0" style="stop-color:#FFE177"/>
					<stop  offset="1" style="stop-color:#FE9738"/>
				</linearGradient>
				<path class="st1" d="M370.7,376.7H142.3c-9.7,0-17.5-7.8-17.5-17.5V152.8c0-9.7,7.8-17.5,17.5-17.5h37.3l49.5,6.1l47.2-6.1h94.5
					c9.7,0,17.5,7.8,17.5,17.5v206.3C388.2,368.8,380.4,376.7,370.7,376.7z"/>
				
					<linearGradient id="SVGID_3_" gradientUnits="userSpaceOnUse" x1="-62.5189" y1="1131.3995" x2="42.8106" y2="982.0231" gradientTransform="matrix(1.0039 0 0 -1.0039 257.7 1341.7844)">
					<stop  offset="0" style="stop-color:#FFE177"/>
					<stop  offset="1" style="stop-color:#FE9738"/>
				</linearGradient>
				<path class="st2" d="M318.2,376.7H142.3c-9.7,0-17.5-7.8-17.5-17.5V152.8c0-9.7,7.8-17.5,17.5-17.5h48.6l37.8,6.1l40.9-6.1h48.6
					c9.7,0,17.5,7.8,17.5,17.5v206.3C335.7,368.8,327.9,376.7,318.2,376.7L318.2,376.7z"/>
				
					<linearGradient id="SVGID_4_" gradientUnits="userSpaceOnUse" x1="-1.2136" y1="1012.7267" x2="-1.2136" y2="954.0033" gradientTransform="matrix(1.0039 0 0 -1.0039 257.7 1341.7844)">
					<stop  offset="0" style="stop-color:#FE9738;stop-opacity:0"/>
					<stop  offset="1" style="stop-color:#F46700"/>
				</linearGradient>
				<path class="st3" d="M124.8,267.1v92.1c0,9.7,7.8,17.5,17.5,17.5h228.4c9.7,0,17.5-7.8,17.5-17.5v-92.1H124.8z"/>
			</g>
			
				<linearGradient id="SVGID_5_" gradientUnits="userSpaceOnUse" x1="54.4486" y1="1066.5028" x2="-20.4309" y2="1244.65" gradientTransform="matrix(1.0039 0 0 -1.0039 257.7 1341.7844)">
				<stop  offset="0" style="stop-color:#FE9738;stop-opacity:0"/>
				<stop  offset="1" style="stop-color:#F46700"/>
			</linearGradient>
			<path class="st4" d="M194.8,184.7l187.5,187.5c3.6-3.2,5.9-7.9,5.9-13.1V253.9L269.6,135.3l-36.5,21.1l-41.4,24.9
				C191.8,183.6,194.8,184.7,194.8,184.7L194.8,184.7z"/>
			
				<linearGradient id="SVGID_6_" gradientUnits="userSpaceOnUse" x1="-32.3185" y1="1187.6379" x2="-9.6853" y2="1145.4307" gradientTransform="matrix(1.0039 0 0 -1.0039 257.7 1341.7844)">
				<stop  offset="0" style="stop-color:#EEF5F6"/>
				<stop  offset="1" style="stop-color:#CBE5E8"/>
			</linearGradient>
			<path class="st5" d="M190.8,135.3v46c0,3.1,3.7,4.6,5.9,2.5c1.4-1.4,3.6-1.4,4.9,0c4.4,4.4,11.4,4.4,15.8,0
				c1.4-1.4,3.6-1.4,4.9,0c4.4,4.4,11.4,4.4,15.8,0c1.4-1.4,3.6-1.4,4.9,0c4.4,4.4,11.4,4.4,15.8,0c1.4-1.4,3.6-1.4,4.9,0
				c2.2,2.2,5.9,0.6,5.9-2.5v-46L190.8,135.3z"/>
			<g>
				<path class="st6" d="M221,311.1h-64.2c-2,0-3.7-1.6-3.7-3.7v-5c0-2,1.6-3.7,3.7-3.7H221c2,0,3.7,1.6,3.7,3.7v5
					C224.6,309.5,223,311.1,221,311.1z"/>
				<path class="st6" d="M221,331.8h-64.2c-2,0-3.7-1.6-3.7-3.7v-5c0-2,1.6-3.7,3.7-3.7H221c2,0,3.7,1.6,3.7,3.7v5
					C224.6,330.1,223,331.8,221,331.8z"/>
				<path class="st6" d="M188.4,352.4h-31.6c-2,0-3.7-1.6-3.7-3.7v-5c0-2,1.6-3.7,3.7-3.7h31.6c2,0,3.7,1.6,3.7,3.7v5
					C192,350.7,190.4,352.4,188.4,352.4L188.4,352.4z"/>
			</g>
		</g>
		
			<linearGradient id="SVGID_7_" gradientUnits="userSpaceOnUse" x1="-844.1108" y1="192.7988" x2="-787.5485" y2="136.2365" gradientTransform="matrix(-4.507300e-11 1.0039 1.0039 4.507300e-11 201.2906 1072.1321)">
			<stop  offset="0" style="stop-color:#C1E9AF"/>
			<stop  offset="1" style="stop-color:#4FC123"/>
		</linearGradient>
		<path class="st7" d="M298.7,241c-6.2,4.1-6.2,13.1,0,17.2l60.9,40.2c6.8,4.5,16-0.4,16-8.6V271h49.2c5.5,0,9.9-4.4,9.9-9.9v-23
			c0-5.5-4.4-9.9-9.9-9.9h-49.2v-18.8c0-8.2-9.1-13.1-16-8.6L298.7,241L298.7,241z"/>
	</g>
</g>
</svg>
