<svg xmlns="http://www.w3.org/2000/svg" viewBox="0 0 24 24" width="24" height="24">
    <path d="M19.43 12.98c.04-.32.07-.64.07-.98s-.03-.66-.07-.98l2.11-1.65c.19-.15.24-.42.12-.64l-2-3.46c-.12-.22-.39-.3-.61-.2l-2.49 1c-.52-.4-1.08-.73-1.69-.98l-.38-2.65c-.05-.23-.25-.4-.49-.4h-4c-.24 0-.44.17-.49.4l-.38 2.65c-.61.25-1.17.58-1.69.98l-2.49-1c-.22-.1-.49-.02-.61.2l-2 3.46c-.12.22-.07.49.12.64l2.11 1.65c-.04.32-.07.64-.07.98s.03.66.07.98l-2.11 1.65c-.19.15-.24.42-.12.64l2 3.46c.12.22.39.3.61.2l2.49-1c.52.4 1.08.73 1.69.98l.38 2.65c.05.23.25.4.49.40h4c.24 0 .44-.17.49-.4l.38-2.65c.61-.25 1.17-.58 1.69-.98l2.49 1c.22.1.49.02.61-.2l2-3.46c.12-.22.07-.49-.12-.64l-2.11-1.65zM12 15.5c-1.93 0-3.5-1.57-3.5-3.5s1.57-3.5 3.5-3.5 3.5 1.57 3.5 3.5-1.57 3.5-3.5 3.5z" fill="#cccccc"/>
</svg>
