<?xml version="1.0" encoding="utf-8"?>
<!-- Generator: Adobe Illustrator 23.0.1, SVG Export Plug-In . SVG Version: 6.00 Build 0)  -->
<svg version="1.1" id="Layer_1" xmlns="http://www.w3.org/2000/svg" xmlns:xlink="http://www.w3.org/1999/xlink" x="0px" y="0px"
	 viewBox="0 0 512 512" style="enable-background:new 0 0 512 512;" xml:space="preserve">
<style type="text/css">
	.st0{fill:url(#SVGID_1_);}
	.st1{fill:#F2F6FC;}
	.st2{fill:#FE6A16;}
	.st3{fill:#F24500;}
	.st4{fill:#FFFFFF;}
	.st5{fill:#FFDA00;}
	.st6{fill:#FFC200;}
</style>
<g>
	<radialGradient id="SVGID_1_" cx="256" cy="256" r="255.7257" gradientUnits="userSpaceOnUse">
		<stop  offset="0" style="stop-color:#1B1464"/>
		<stop  offset="0.1681" style="stop-color:#19125B"/>
		<stop  offset="0.4389" style="stop-color:#120E44"/>
		<stop  offset="0.7766" style="stop-color:#08061D"/>
		<stop  offset="1" style="stop-color:#000000"/>
	</radialGradient>
	<path class="st0" d="M0,398.7C0,303.3,0,208,0,112.6c0.8-5.1,1.2-10.3,2.3-15.4c7.3-33.9,25.5-60.4,54.8-78.9
		C73.9,7.7,92.2,1.7,112,0.6c57.2,0,114.5,0,171.7,0c38.7,0,77.4,0,116.1,0c2.3-0.1,4.5,0.3,6.8,0.6c32.7,4.4,59.3,19.6,79.7,45.4
		c16.3,20.5,25.3,44.1,25.4,70.3c0.4,91.9,0.2,183.8,0.2,275.8c0,6.5-0.6,12.9-1.8,19.3c-5.3,29.1-19.3,53.2-42.1,72.1
		c-21.5,17.8-46.4,27-74.3,27.5c-0.8,0-1.6,0-2.4,0c-89.9,0-179.8,0-269.8,0c-0.9,0-1.8,0-2.7,0.1c-19.7,0-38.3-4.9-55.5-14.4
		C31,479,10.8,451.9,2.6,415.8C1.3,410.2,1.1,404.4,0,398.7z"/>
</g>
<g>
	<path class="st1" d="M371.8,167.9l-16.6,16.6v-13.8c0-41.5-33.8-75.3-75.3-75.3v26c27.2,0,49.3,22.1,49.3,49.3v13.8l-16.6-16.6
		l-18.4,18.4l48,48l48-48L371.8,167.9z"/>
	<path class="st2" d="M160.4,95.5l-42.2,42.2V261h131.5V95.5H160.4z"/>
	<path class="st3" d="M191.2,95.5h58.4V261h-58.4V95.5z"/>
	<path class="st4" d="M160.4,137.7V95.5l-42.2,42.2H160.4z"/>
	<path class="st5" d="M300.9,256l-42.2,42.2v123.3h131.5V256H300.9z"/>
	<path class="st6" d="M331.8,256h58.4v165.5h-58.4V256z"/>
	<g>
		<path class="st4" d="M300.9,298.2V256l-42.2,42.2H300.9z"/>
		<path class="st4" d="M179.2,346.2v-7.7l16.6,16.6l18.4-18.4l-48-48l-48,48l18.4,18.4l16.6-16.6v7.7c0,41.5,33.8,75.3,75.3,75.3
			v-26C201.3,395.5,179.2,373.4,179.2,346.2z"/>
	</g>
</g>
</svg>
