<?xml version="1.0" encoding="UTF-8"?>
<svg id="Layer_1" data-name="Layer 1" xmlns="http://www.w3.org/2000/svg" viewBox="0 0 254.29 254.17">
  <defs>
    <style>
      .cls-1 {
        fill: #fff;
      }

      .cls-2 {
        fill: #f36b21;
      }

      .cls-3 {
        fill: #60bb46;
      }

      .cls-4 {
        fill: #3f74ba;
      }

      .cls-5 {
        fill: #feda00;
      }

      .cls-6 {
        fill: #fdc20f;
      }

      .cls-7 {
        fill: #f04923;
      }
    </style>
  </defs>
  <path class="cls-3" d="m219.93,64.19l-13.06,13.06v-10.82c0-32.6-26.52-59.11-59.11-59.11v20.42c21.34,0,38.69,17.36,38.69,38.7v10.82l-13.06-13.06-14.44,14.44,37.7,37.7,37.7-37.7-14.44-14.44Z"/>
  <path class="cls-2" d="m33.15,0L0,33.15v96.81h103.26V0H33.15Z"/>
  <path class="cls-7" d="m57.4,0h45.86v129.96h-45.86V0Z"/>
  <path class="cls-1" d="m33.15,33.15V0L0,33.15h33.15Z"/>
  <g>
    <path class="cls-5" d="m184.18,124.21l-33.15,33.15v96.81h103.26V124.21h-70.11Z"/>
    <path class="cls-6" d="m208.47,124.21h45.82v129.96h-45.82V124.21Z"/>
    <path class="cls-4" d="m184.18,157.36v-33.15l-33.15,33.15h33.15Z"/>
  </g>
  <path class="cls-4" d="m64.11,185.92v-6.05l13.06,13.06,14.44-14.44-37.7-37.7-37.7,37.7,14.44,14.44,13.06-13.06v6.05c0,32.6,26.52,59.11,59.11,59.11v-20.42c-21.34,0-38.69-17.36-38.69-38.7Z"/>
</svg>